<svg width="96" height="124" viewBox="0 0 96 124" fill="none" xmlns="http://www.w3.org/2000/svg">
<path d="M86.8796 56.4905C85.3027 54.4238 83.3831 52.6326 81.6005 50.8415C77.0071 46.708 71.7966 43.7457 67.4088 39.4056C57.1936 29.3475 54.9311 12.7448 61.4442 0C54.9311 1.58449 49.2407 5.16682 44.3731 9.09359C26.6163 23.4229 19.6233 48.7058 27.9875 70.4065C28.2617 71.0954 28.536 71.7843 28.536 72.6799C28.536 74.1954 27.5076 75.5733 26.1364 76.1244C24.5595 76.8133 22.9141 76.4 21.6115 75.2977C21.2201 74.9725 20.8943 74.575 20.6517 74.1266C12.9045 64.2752 11.6705 50.1525 16.881 38.8544C5.43162 48.2236 -0.807235 64.0685 0.0840308 79.0178C0.495384 82.4624 0.906737 85.9069 2.07224 89.3514C3.03206 93.4849 4.88315 97.6183 6.93992 101.27C14.3443 113.188 27.1648 121.73 40.9451 123.452C55.6167 125.312 71.3167 122.626 82.5604 112.43C95.1066 100.994 99.4944 82.669 93.0499 66.9619L92.1586 65.1707C90.7189 62.0018 86.8796 56.4905 86.8796 56.4905ZM65.215 99.8917C63.2953 101.545 60.1416 103.336 57.6735 104.025C49.9949 106.781 42.3163 102.923 37.7914 98.3761C45.9499 96.4472 50.8176 90.3848 52.2573 84.2535C53.4228 78.7422 51.2289 74.1954 50.3377 68.8909C49.515 63.7929 49.6521 59.4528 51.5032 54.6993C52.8058 57.3172 54.177 59.935 55.8224 62.0018C61.1014 68.8909 69.3971 71.9221 71.1796 81.2912C71.4538 82.2557 71.5909 83.2201 71.5909 84.2535C71.7966 89.9026 69.3285 96.1027 65.215 99.8917Z" fill="#A586FC"/>
</svg>
