<svg width="136" height="124" viewBox="0 0 136 124" fill="none" xmlns="http://www.w3.org/2000/svg">
<path d="M131.758 17.4985C126.063 5.68475 109.655 -3.98101 90.5699 1.64661C81.45 4.30894 73.4931 10.0184 67.9991 17.8421C62.5051 10.0184 54.5481 4.30894 45.4282 1.64661C26.3004 -3.8951 9.93552 5.68475 4.23968 17.4985C-3.75149 34.0376 -0.436004 52.6389 14.1011 72.7866C25.4928 88.5525 41.7727 104.533 65.4062 123.092C66.1531 123.68 67.0731 124 68.0203 124C68.9675 124 69.8876 123.68 70.6344 123.092C94.2254 104.576 110.548 88.7244 121.939 72.7866C136.434 52.6389 139.75 34.0376 131.758 17.4985Z" fill="#FFD369"/>
</svg>
