<svg width="124" height="124" viewBox="0 0 124 124" fill="none" xmlns="http://www.w3.org/2000/svg">
<path fill-rule="evenodd" clip-rule="evenodd" d="M113.902 1.7359C113.353 1.18559 112.701 0.749029 111.983 0.451171C111.266 0.153313 110.496 0 109.719 0C108.942 0 108.173 0.153313 107.455 0.451171C106.737 0.749029 106.085 1.18559 105.536 1.7359L100.38 6.89707C97.0686 5.31531 93.3488 4.80006 89.7326 5.42227C86.1165 6.04448 82.782 7.77354 80.1883 10.3714L17.4724 73.146L50.9205 106.628L113.642 43.8598C116.237 41.2632 117.964 37.9249 118.584 34.3049C119.205 30.6849 118.689 26.9613 117.107 23.6472L122.269 18.4801C123.377 17.3702 124 15.865 124 14.2955C124 12.7261 123.377 11.2209 122.269 10.111L113.902 1.7359ZM88.6671 52.1047L50.9205 89.8902L34.1994 73.146L71.9401 35.3664L88.6671 52.1047ZM99.4163 41.3444L105.27 35.4848C105.82 34.9351 106.256 34.2823 106.553 33.5638C106.851 32.8452 107.004 32.0751 107.004 31.2972C107.004 30.5194 106.851 29.7492 106.553 29.0307C106.256 28.3122 105.82 27.6594 105.27 27.1097L96.9153 18.7405C96.3661 18.1902 95.714 17.7537 94.9962 17.4558C94.2784 17.158 93.509 17.0046 92.732 17.0046C91.955 17.0046 91.1856 17.158 90.4678 17.4558C89.75 17.7537 89.0979 18.1902 88.5488 18.7405L82.6953 24.6001L99.4163 41.3444Z" fill="#FFD369"/>
<path d="M0 124L12.5467 77.9637L45.9888 111.446L0 124Z" fill="#FFD369"/>
</svg>
