<svg width="132" height="126" viewBox="0 0 132 126" fill="none" xmlns="http://www.w3.org/2000/svg">
<path d="M43.8057 38.4346L60.6957 4.28889C61.1874 3.30071 61.9435 2.46955 62.8794 1.88863C63.8152 1.30771 64.8938 1 65.9941 1C67.0945 1 68.173 1.30771 69.1089 1.88863C70.0448 2.46955 70.8009 3.30071 71.2926 4.28889L88.1826 38.4346L125.941 43.9428C127.03 44.0944 128.055 44.5504 128.899 45.2586C129.742 45.9668 130.37 46.8988 130.711 47.9482C131.052 48.9976 131.092 50.1221 130.827 51.1933C130.562 52.2645 130.002 53.2393 129.211 54.0064L101.894 80.5686L108.343 118.095C109.168 122.911 104.097 126.579 99.7612 124.308L65.9941 106.583L32.2206 124.308C27.8908 126.586 22.8199 122.911 23.6456 118.088L30.0947 80.5621L2.77682 53.9999C1.99009 53.2322 1.43367 52.2584 1.1708 51.1891C0.907933 50.1198 0.949164 48.9979 1.28981 47.951C1.63045 46.904 2.25684 45.974 3.09778 45.2666C3.93872 44.5592 4.96047 44.1028 6.04691 43.9494L43.8057 38.4346Z" fill="#A586FC" stroke="black" stroke-width="1.5" stroke-linecap="round" stroke-linejoin="round"/>
</svg>
